<?xml version="1.0" encoding="UTF-8" standalone="no"?>
<svg xmlns="http://www.w3.org/2000/svg" width="182" height="178" viewBox="0 0 182 178">
  <path d="M 165 81 L 152 73 L 148 72 L 97 107 L 97 139 L 112 134 L 112 117 L 113 116 L 150 141 L 167 134 L 128 107 L 131 103 Z M 14 83 L 14 130 L 90 163 L 144 143 L 132 134 L 127 133 L 93 146 L 89 146 L 40 124 L 31 121 L 29 119 L 29 113 L 31 111 L 69 111 L 69 97 L 31 97 L 29 95 L 29 92 L 31 90 L 51 81 L 51 65 Z M 69 50 L 56 57 L 55 78 L 69 72 Z M 119 38 L 119 86 L 123 83 L 123 42 Z M 108 28 L 108 84 L 109 85 L 108 90 L 109 92 L 108 93 L 113 90 L 113 32 Z M 97 18 L 97 100 L 98 101 L 102 98 L 102 22 Z M 90 14 L 76 23 L 76 135 L 90 141 Z" fill="#000000" fill-rule="evenodd" clip-rule="evenodd"/>
</svg>
