<?xml version="1.0" encoding="UTF-8" standalone="no"?>
<svg xmlns="http://www.w3.org/2000/svg" width="653" height="157" viewBox="0 0 653 157">
  <path d="M 544 120 L 544 121 L 638 121 L 638 120 Z M 204 121 L 298 121 L 299 120 L 204 120 Z M 519 115 L 518 116 L 518 126 L 526 126 L 526 125 L 521 125 L 520 124 L 521 121 L 525 121 L 525 120 L 521 120 L 520 118 L 522 116 L 525 117 L 526 115 Z M 502 115 L 502 126 L 509 126 L 509 125 L 504 125 L 503 124 L 503 115 Z M 490 115 L 490 126 L 491 126 L 491 115 Z M 470 115 L 470 126 L 478 125 L 480 121 L 479 118 L 475 115 Z M 473 116 L 478 119 L 478 122 L 475 125 L 471 124 L 471 118 Z M 452 115 L 452 126 L 460 126 L 460 125 L 454 125 L 453 124 L 455 121 L 459 121 L 459 120 L 455 120 L 453 118 L 455 116 L 459 116 L 459 115 Z M 425 115 L 421 126 L 424 124 L 428 124 L 431 126 L 428 117 Z M 424 120 L 426 118 L 428 121 L 425 122 Z M 406 115 L 404 117 L 404 120 L 408 121 L 410 124 L 409 125 L 404 124 L 405 126 L 410 126 L 412 124 L 412 122 L 405 118 L 407 116 L 410 117 L 411 116 Z M 387 115 L 387 126 L 394 126 L 394 125 L 389 125 L 388 124 L 389 121 L 393 121 L 393 120 L 389 120 L 388 118 L 390 116 L 394 116 L 394 115 Z M 369 115 L 368 116 L 368 126 L 370 126 L 371 122 L 376 126 L 375 124 L 376 116 Z M 370 117 L 373 116 L 375 119 L 373 121 L 371 121 Z M 356 115 L 351 115 L 350 116 L 351 126 L 352 126 L 353 122 L 358 121 L 358 116 Z M 352 117 L 355 116 L 357 119 L 355 121 L 353 121 Z M 328 115 L 328 126 L 329 126 L 329 121 L 330 120 L 333 125 L 335 125 L 337 120 L 338 121 L 338 126 L 340 126 L 340 115 L 337 116 L 334 122 L 332 120 L 331 116 Z M 316 115 L 316 126 L 317 126 L 317 115 Z M 146 69 L 132 61 L 90 90 L 87 93 L 87 120 L 100 116 L 100 101 L 101 100 L 104 101 L 134 122 L 149 116 L 114 91 Z M 605 59 L 594 79 L 584 102 L 594 100 L 598 98 L 610 72 L 612 73 L 626 102 L 638 102 L 637 98 L 617 59 Z M 544 59 L 544 102 L 553 102 L 554 101 L 554 91 L 556 89 L 575 89 L 580 87 L 583 84 L 586 77 L 586 71 L 584 65 L 580 61 L 575 59 Z M 554 69 L 555 68 L 571 68 L 575 71 L 576 75 L 572 80 L 555 80 L 554 79 Z M 494 59 L 494 102 L 504 102 L 504 90 L 505 89 L 525 89 L 533 84 L 535 80 L 536 72 L 534 65 L 530 61 L 525 59 Z M 504 79 L 504 69 L 505 68 L 522 68 L 525 71 L 526 74 L 525 77 L 522 80 L 505 80 Z M 453 59 L 449 65 L 449 67 L 432 100 L 432 102 L 442 100 L 446 98 L 459 71 L 474 102 L 486 102 L 466 59 Z M 382 59 L 382 102 L 391 102 L 392 101 L 392 92 L 398 86 L 413 102 L 426 102 L 421 95 L 406 79 L 426 59 L 412 59 L 410 60 L 393 77 L 392 76 L 392 59 Z M 335 59 L 335 102 L 372 102 L 373 101 L 373 93 L 372 92 L 346 92 L 345 91 L 345 59 Z M 314 59 L 314 98 L 324 101 L 324 59 Z M 259 59 L 259 102 L 286 102 L 291 101 L 299 96 L 304 86 L 304 74 L 302 69 L 297 63 L 287 59 Z M 269 70 L 271 68 L 284 68 L 289 70 L 292 73 L 294 78 L 293 86 L 288 91 L 285 92 L 270 92 L 269 91 Z M 204 59 L 204 102 L 247 102 L 248 101 L 248 93 L 216 93 L 214 91 L 214 86 L 216 84 L 244 84 L 244 76 L 243 75 L 221 75 L 216 76 L 214 74 L 214 69 L 215 68 L 245 68 L 247 59 Z M 14 71 L 14 112 L 29 118 L 36 122 L 50 127 L 81 141 L 128 124 L 127 122 L 115 114 L 82 127 L 28 103 L 28 97 L 30 95 L 62 95 L 62 85 L 63 84 L 62 83 L 29 83 L 28 82 L 29 78 L 46 69 L 46 55 Z M 63 40 L 51 46 L 51 67 L 63 61 Z M 106 34 L 106 69 L 107 70 L 106 73 L 108 73 L 110 71 L 110 36 Z M 97 26 L 97 80 L 98 80 L 101 77 L 101 29 Z M 87 17 L 87 86 L 88 87 L 92 83 L 92 21 Z M 176 14 L 176 142 L 177 142 L 177 14 Z M 81 14 L 68 23 L 69 24 L 69 56 L 68 57 L 69 61 L 69 86 L 68 87 L 69 109 L 68 110 L 68 115 L 69 117 L 76 119 L 81 122 Z" fill="#000000" fill-rule="evenodd" clip-rule="evenodd"/>
</svg>
